<svg width="134" height="134" viewBox="0 0 134 134" fill="none" xmlns="http://www.w3.org/2000/svg">
<g opacity="0.12">
<path d="M117.758 11.1665H16.2425C13.4392 11.1665 11.1667 13.439 11.1667 16.2423V117.757C11.1667 120.561 13.4392 122.833 16.2425 122.833H117.758C120.561 122.833 122.833 120.561 122.833 117.757V16.2423C122.833 13.439 120.561 11.1665 117.758 11.1665Z" stroke="white" stroke-width="5" stroke-linecap="round"/>
<path d="M122.833 90.1954L95.968 62.9255C95.0162 61.9593 93.7251 61.4165 92.3789 61.4165C91.0328 61.4165 89.7417 61.9593 88.7898 62.9255L60.4377 91.7045C59.4858 92.6707 58.1948 93.2135 56.8486 93.2135C55.5024 93.2135 54.2114 92.6707 53.2595 91.7045L40.1347 78.3821C39.1828 77.4158 37.8917 76.873 36.5455 76.873C35.1994 76.873 33.9083 77.4158 32.9564 78.3821L11.1667 100.5" stroke="white" stroke-width="5" stroke-linecap="round" stroke-linejoin="round"/>
<path d="M47.4583 50.25C52.0836 50.25 55.8333 46.5004 55.8333 41.875C55.8333 37.2496 52.0836 33.5 47.4583 33.5C42.8329 33.5 39.0833 37.2496 39.0833 41.875C39.0833 46.5004 42.8329 50.25 47.4583 50.25Z" fill="white"/>
</g>
</svg>
