<svg width="70" height="70" viewBox="0 0 70 70" fill="none" xmlns="http://www.w3.org/2000/svg">
<circle cx="35" cy="35" r="34.5" fill="#FAFAFA" stroke="#CBDBE3"/>
<path fill-rule="evenodd" clip-rule="evenodd" d="M40.6376 30.1098C40.2646 30.1098 39.9266 29.8947 39.7676 29.5587C39.4806 28.9507 39.1156 28.1738 38.8996 27.7508C38.5806 27.1218 38.0636 26.7557 37.3476 26.7508C37.3356 26.7497 32.6635 26.7497 32.6515 26.7508C31.9355 26.7557 31.4195 27.1218 31.0995 27.7508C30.8845 28.1738 30.5195 28.9507 30.2325 29.5587C30.0735 29.8947 29.7345 30.1098 29.3625 30.1098C27.3665 30.1098 25.7495 31.7267 25.7495 33.7218V39.6578C25.7495 41.6518 27.3665 43.2698 29.3625 43.2698H40.6376C42.6326 43.2698 44.2496 41.6518 44.2496 39.6578V33.7218C44.2496 31.7267 42.6326 30.1098 40.6376 30.1098Z" stroke="#CBDBE3" stroke-width="1.5" stroke-linecap="round" stroke-linejoin="round"/>
<path fill-rule="evenodd" clip-rule="evenodd" d="M31.8214 36.3343C31.8204 38.0873 33.2514 39.5213 35.0014 39.5203C36.7484 39.5183 38.1754 38.0903 38.1784 36.3413C38.1814 34.5853 36.7554 33.1543 35.0034 33.1523C33.2414 33.1503 31.8074 34.6053 31.8214 36.3343Z" stroke="#CBDBE3" stroke-width="1.5" stroke-linecap="round" stroke-linejoin="round"/>
<path d="M39.9025 33.9951C39.8059 33.9852 39.7105 33.96 39.6036 33.9169C39.4847 33.8641 39.3818 33.7969 39.2823 33.6959C39.1035 33.5057 39 33.257 39 33.0005C39 32.8642 39.0279 32.7292 39.0823 32.6068C39.1368 32.4828 39.2014 32.3783 39.3182 32.2646C39.407 32.1872 39.498 32.1249 39.6224 32.0701C39.9913 31.924 40.4301 32.0113 40.7043 32.2854C40.7865 32.3664 40.8557 32.4641 40.8941 32.5465L40.9169 32.6049C40.9721 32.7292 41 32.8642 41 33.0005C41 33.2622 40.8978 33.5043 40.7081 33.7058C40.5442 33.8708 40.3289 33.9723 40.0992 33.9951L40 34L39.9025 33.9951Z" fill="#CBDBE3"/>
</svg>
