<svg width="24" height="24" viewBox="0 0 24 24" fill="none" xmlns="http://www.w3.org/2000/svg">
<path opacity="0.2" d="M16.3339 2H7.66488C4.27588 2 1.99988 4.378 1.99988 7.917V16.084C1.99988 19.622 4.27588 22 7.66488 22H16.3329C19.7219 22 21.9999 19.622 21.9999 16.084V7.917C21.9999 4.378 19.7229 2 16.3339 2Z" fill="#00C61B"/>
<path d="M12 8C9.8 8 8 9.8 8 12C8 14.2 9.8 16 12 16C14.2 16 16 14.2 16 12C16 9.8 14.2 8 12 8ZM12 9C12.65 9 13.25 9.2 13.75 9.55L9.55 13.75C9.2 13.25 9 12.65 9 12C9 10.35 10.35 9 12 9ZM12 15C11.35 15 10.75 14.8 10.25 14.45L14.45 10.25C14.8 10.75 15 11.35 15 12C15 13.65 13.65 15 12 15Z" fill="#00C61B"/>
</svg>
