<svg width="20" height="20" viewBox="0 0 20 20" fill="none" xmlns="http://www.w3.org/2000/svg">
<path opacity="0.2" d="M14.334 0H5.665C2.276 0 0 2.378 0 5.917V14.084C0 17.622 2.276 20 5.665 20H14.333C17.722 20 20 17.622 20 14.084V5.917C20 2.378 17.723 0 14.334 0Z" fill="#00C61B"/>
<path fill-rule="evenodd" clip-rule="evenodd" d="M9.16675 11.2501V12.0834H7.50008C6.34949 12.0834 5.41675 11.1507 5.41675 10.0001C5.41675 8.84949 6.34949 7.91675 7.50008 7.91675H9.16675V8.75008H7.50008C6.80973 8.75008 6.25008 9.30971 6.25008 10.0001C6.25008 10.6905 6.80973 11.2501 7.50008 11.2501H9.16675ZM10.8334 8.75008V7.91675H12.5001C13.6507 7.91675 14.5834 8.84949 14.5834 10.0001C14.5834 11.1507 13.6507 12.0834 12.5001 12.0834H10.8334V11.2501H12.5001C13.1905 11.2501 13.7501 10.6905 13.7501 10.0001C13.7501 9.30971 13.1905 8.75008 12.5001 8.75008H10.8334ZM12.0834 9.58341H7.91675V10.4167H12.0834V9.58341Z" fill="#00C61B"/>
</svg>
