<svg width="24" height="20" viewBox="0 0 24 20" fill="none" xmlns="http://www.w3.org/2000/svg">
<path d="M22.717 8.54941C21.7617 5.26731 20.6844 3.57147 20.667 3.54105C20.6056 3.46609 19.0833 1.64434 15.4143 0.296875L14.9295 1.61688C16.6749 2.25794 17.9133 3.04 18.5943 3.54531C16.5611 2.93814 14.1423 2.56628 12 2.56628C9.85772 2.56628 7.43892 2.93814 5.40567 3.54531C6.08667 3.04005 7.32502 2.25794 9.0705 1.61688L8.58567 0.296875C4.91672 1.64434 3.39441 3.46609 3.333 3.54105C3.31561 3.57147 2.23828 5.26731 1.28306 8.54941C0.362438 11.7123 0.0127031 16.1743 0 16.3533C0.0820312 16.4815 1.96875 19.7028 7.11061 19.7028L8.41392 17.8155C6.95377 17.4278 5.56144 16.8025 4.28691 15.9542L5.06611 14.7835C7.12228 16.1522 9.51998 16.8756 12 16.8756C14.48 16.8756 16.8777 16.1522 18.9339 14.7835L19.7131 15.9542C18.4386 16.8025 17.0462 17.4278 15.5861 17.8155L16.8894 19.7028C22.0312 19.7028 23.918 16.4815 24 16.3533C23.9873 16.1743 23.6376 11.7123 22.717 8.54941ZM8.74884 12.2283H7.34259V9.8845H8.74884V12.2283ZM16.6574 12.2283H15.2512V9.8845H16.6574V12.2283Z" fill="#313731"/>
</svg>
