<svg width="12" height="22" viewBox="0 0 12 22" fill="none" xmlns="http://www.w3.org/2000/svg">
<path d="M11.5628 0.00458002L8.78554 0C5.66544 0 3.64903 2.12509 3.64903 5.41423V7.91055H0.856622C0.615322 7.91055 0.419922 8.1115 0.419922 8.35937V11.9763C0.419922 12.2241 0.615552 12.4249 0.856622 12.4249H3.64903V21.5514C3.64903 21.7993 3.84443 22 4.08574 22H7.72904C7.97034 22 8.16574 21.799 8.16574 21.5514V12.4249H11.4307C11.672 12.4249 11.8674 12.2241 11.8674 11.9763L11.8687 8.35937C11.8687 8.24036 11.8226 8.12638 11.7408 8.04215C11.6591 7.95793 11.5477 7.91055 11.4318 7.91055H8.16574V5.79439C8.16574 4.77727 8.40164 4.26094 9.69154 4.26094L11.5624 4.26025C11.8034 4.26025 11.9988 4.0593 11.9988 3.81166V0.45317C11.9988 0.20576 11.8037 0.00504002 11.5628 0.00458002Z" fill="#313731"/>
</svg>
