<svg width="100" height="100" viewBox="0 0 100 100" fill="none" xmlns="http://www.w3.org/2000/svg">
<circle opacity="0.1" cx="50" cy="50" r="50" fill="#00C61B"/>
<g clip-path="url(#clip0)">
<path d="M63.4161 48.164C62.4999 45.2491 61.9112 43.8995 61.6416 43.3542C61.425 42.9079 60.8757 41.9473 60.8539 41.9092C60.7817 41.8211 59.0985 39.8067 55.0949 38.1641C54.6448 37.9795 54.1378 38.2154 53.9701 38.672C53.8024 39.1286 54.0377 39.633 54.4873 39.8187C56.2205 40.535 57.4481 41.3095 58.2486 41.9115C55.7034 41.1525 52.6771 40.6881 49.9967 40.6881C47.3131 40.6881 44.2831 41.1539 41.736 41.9145C42.4782 41.3638 43.7489 40.5507 45.5065 39.8198C45.9557 39.633 46.191 39.1286 46.0233 38.672C45.8555 38.2154 45.3485 37.9795 44.8985 38.1641C40.8949 39.8067 39.2117 41.8211 39.1395 41.9092C39.1395 41.9092 38.6865 42.6404 38.3059 43.4434C38.0777 43.9247 37.4868 45.0236 36.5715 48.1831C35.4236 52.1467 35.0159 57.7491 35 57.9732C35.2026 58.4165 37.5514 62.1547 43.8719 62.1547L45.6039 59.6468C47.0334 60.0176 48.5081 60.2052 49.9968 60.2052C51.4886 60.2052 52.9663 60.0168 54.3986 59.6445L56.1198 62.1547C62.566 62.1547 64.6702 58.5437 65 57.9631C64.9745 57.6962 64.3361 51.0915 63.4161 48.164ZM61.7291 58.8411C60.3883 59.79 58.8131 60.3079 57.0413 60.3835L56.1527 59.0876C57.1065 58.7282 58.0302 58.2845 58.9137 57.7587C59.3318 57.51 59.4405 56.9611 59.1709 56.5562C58.9014 56.1512 58.3558 56.0438 57.9364 56.2902C56.9188 56.8881 55.8429 57.3655 54.727 57.7176V57.7193C54.727 57.7193 52.4208 58.4436 49.9969 58.4436C47.573 58.4436 45.2731 57.7215 45.2731 57.7215V57.7196C44.155 57.3673 43.0768 56.8892 42.0573 56.2902C41.6379 56.0438 41.0923 56.1512 40.8228 56.5561C40.5532 56.9611 40.6619 57.5099 41.0799 57.7587C41.9655 58.2857 42.8914 58.7301 43.8475 59.09L42.9542 60.3835C41.1816 60.3083 39.6057 59.7903 38.2645 58.8411C37.5168 58.3118 37.0351 57.7753 36.8035 57.4865C36.9057 56.2799 37.3238 51.9182 38.2638 48.6731C38.9693 46.2377 39.4564 45.098 39.7222 44.5478C39.7222 44.5478 46.5401 42.4496 49.9969 42.4496C53.4508 42.4496 57.6649 43.3077 60.2484 44.5369C60.5277 45.1733 61.025 46.4311 61.7356 48.6922C62.4853 51.0775 63.0445 56.1465 63.1839 57.4941C62.949 57.786 62.4694 58.3171 61.7291 58.8411Z" fill="#00C61B"/>
<path d="M44.1621 50.7363C44.1621 50.2498 44.5565 49.8555 45.0429 49.8555C45.5294 49.8555 45.9237 50.2498 45.9237 50.7363V51.9107C45.9237 52.3971 45.5294 52.7915 45.0429 52.7915C44.5565 52.7915 44.1621 52.3971 44.1621 51.9107V50.7363Z" fill="#00C61B"/>
<path d="M54.0693 50.7363C54.0693 50.2498 54.4637 49.8555 54.9501 49.8555C55.4366 49.8555 55.8309 50.2498 55.8309 50.7363V51.9107C55.8309 52.3971 55.4366 52.7915 54.9501 52.7915C54.4637 52.7915 54.0693 52.3971 54.0693 51.9107V50.7363Z" fill="#00C61B"/>
</g>
<defs>
<clipPath id="clip0">
<rect width="30" height="30" fill="white" transform="translate(35 35)"/>
</clipPath>
</defs>
</svg>
