<svg width="24" height="24" viewBox="0 0 24 24" fill="none" xmlns="http://www.w3.org/2000/svg">
<path opacity="0.2" d="M16.334 2H7.665C4.276 2 2 4.378 2 7.917V16.084C2 19.622 4.276 22 7.665 22H16.333C19.722 22 22 19.622 22 16.084V7.917C22 4.378 19.723 2 16.334 2Z" fill="#00C61B"/>
<path fill-rule="evenodd" clip-rule="evenodd" d="M11.1667 13.2503V14.0837H9.50008C8.34949 14.0837 7.41675 13.1509 7.41675 12.0003C7.41675 10.8497 8.34949 9.91699 9.50008 9.91699H11.1667V10.7503H9.50008C8.80973 10.7503 8.25008 11.31 8.25008 12.0003C8.25008 12.6907 8.80973 13.2503 9.50008 13.2503H11.1667ZM12.8334 10.7503V9.91699H14.5001C15.6507 9.91699 16.5834 10.8497 16.5834 12.0003C16.5834 13.1509 15.6507 14.0837 14.5001 14.0837H12.8334V13.2503H14.5001C15.1905 13.2503 15.7501 12.6907 15.7501 12.0003C15.7501 11.31 15.1905 10.7503 14.5001 10.7503H12.8334ZM14.0834 11.5837H9.91675V12.417H14.0834V11.5837Z" fill="#00C61B"/>
</svg>
