<svg width="115" height="20" viewBox="0 0 115 20" fill="none" xmlns="http://www.w3.org/2000/svg">
<path d="M37.2665 18.16C36.1331 18.16 35.2198 17.82 34.5265 17.14C33.8465 16.4467 33.5065 15.5334 33.5065 14.4V7.58004C33.5065 6.43337 33.8465 5.52671 34.5265 4.86004C35.2198 4.18004 36.1331 3.84004 37.2665 3.84004C38.4131 3.84004 39.3331 4.18004 40.0265 4.86004C40.7198 5.52671 41.0665 6.43337 41.0665 7.58004V7.82004C41.0665 7.88671 41.0398 7.94671 40.9865 8.00004C40.9465 8.05337 40.8931 8.08004 40.8265 8.08004L38.9665 8.16004C38.8065 8.16004 38.7265 8.08004 38.7265 7.92004V7.42004C38.7265 6.95337 38.5931 6.57337 38.3265 6.28004C38.0598 5.98671 37.7065 5.84004 37.2665 5.84004C36.8398 5.84004 36.4931 5.98671 36.2265 6.28004C35.9598 6.57337 35.8265 6.95337 35.8265 7.42004V14.58C35.8265 15.0467 35.9598 15.4267 36.2265 15.72C36.4931 16.0134 36.8398 16.16 37.2665 16.16C37.7065 16.16 38.0598 16.0134 38.3265 15.72C38.5931 15.4267 38.7265 15.0467 38.7265 14.58V14.08C38.7265 14.0134 38.7465 13.96 38.7865 13.92C38.8398 13.8667 38.8998 13.84 38.9665 13.84L40.8265 13.92C40.8931 13.92 40.9465 13.9467 40.9865 14C41.0398 14.04 41.0665 14.0934 41.0665 14.16V14.4C41.0665 15.5334 40.7198 16.4467 40.0265 17.14C39.3331 17.82 38.4131 18.16 37.2665 18.16Z" fill="#313731"/>
<path d="M42.8871 18C42.8204 18 42.7604 17.98 42.7071 17.94C42.6671 17.8867 42.6471 17.8267 42.6471 17.76V4.24004C42.6471 4.17337 42.6671 4.12004 42.7071 4.08004C42.7604 4.02671 42.8204 4.00004 42.8871 4.00004H44.7271C44.7938 4.00004 44.8471 4.02671 44.8871 4.08004C44.9404 4.12004 44.9671 4.17337 44.9671 4.24004V17.76C44.9671 17.8267 44.9404 17.8867 44.8871 17.94C44.8471 17.98 44.7938 18 44.7271 18H42.8871Z" fill="#313731"/>
<path d="M50.1115 18.16C49.0048 18.16 48.1315 17.8667 47.4915 17.28C46.8648 16.6934 46.5515 15.9 46.5515 14.9V10.88C46.5515 9.89337 46.8715 9.10671 47.5115 8.52004C48.1515 7.92004 49.0181 7.62004 50.1115 7.62004C51.2181 7.62004 52.0915 7.92004 52.7315 8.52004C53.3715 9.10671 53.6915 9.89337 53.6915 10.88V14.9C53.6915 15.9 53.3715 16.6934 52.7315 17.28C52.1048 17.8667 51.2315 18.16 50.1115 18.16ZM50.1115 16.14C50.4848 16.14 50.7848 16.0134 51.0115 15.76C51.2515 15.4934 51.3715 15.1467 51.3715 14.72V11.04C51.3715 10.6267 51.2515 10.2867 51.0115 10.02C50.7848 9.75337 50.4848 9.62004 50.1115 9.62004C49.7381 9.62004 49.4381 9.75337 49.2115 10.02C48.9848 10.2734 48.8715 10.6134 48.8715 11.04V14.72C48.8715 15.1467 48.9848 15.4934 49.2115 15.76C49.4381 16.0134 49.7381 16.14 50.1115 16.14Z" fill="#313731"/>
<path d="M58.4843 18.12C57.431 18.12 56.591 17.8667 55.9643 17.36C55.3376 16.8534 55.0243 16.1667 55.0243 15.3V15.16C55.0243 15.0934 55.0443 15.04 55.0843 15C55.1376 14.9467 55.1976 14.92 55.2643 14.92H56.9843C57.051 14.92 57.1043 14.9467 57.1443 15C57.1976 15.04 57.2243 15.0934 57.2243 15.16V15.26C57.2243 15.58 57.3443 15.8467 57.5843 16.06C57.8376 16.2734 58.1443 16.38 58.5043 16.38C58.851 16.38 59.1243 16.28 59.3243 16.08C59.5243 15.88 59.6243 15.6267 59.6243 15.32C59.6243 15.0534 59.5376 14.8334 59.3643 14.66C59.191 14.4734 59.0043 14.3334 58.8043 14.24C58.6043 14.1467 58.2443 13.9934 57.7243 13.78C56.9643 13.4867 56.3376 13.1134 55.8443 12.66C55.3643 12.2067 55.1243 11.5334 55.1243 10.64C55.1243 9.70671 55.4176 8.98004 56.0043 8.46004C56.6043 7.92671 57.411 7.66004 58.4243 7.66004C59.4643 7.66004 60.2843 7.94004 60.8843 8.50004C61.4976 9.04671 61.8043 9.78671 61.8043 10.72C61.8043 10.7867 61.7776 10.8467 61.7243 10.9C61.6843 10.94 61.631 10.96 61.5643 10.96H59.8843C59.8176 10.96 59.7576 10.94 59.7043 10.9C59.6643 10.8467 59.6443 10.7867 59.6443 10.72V10.6C59.6443 10.28 59.531 10.0134 59.3043 9.80004C59.091 9.58671 58.8176 9.48004 58.4843 9.48004C58.1376 9.48004 57.8576 9.59337 57.6443 9.82004C57.4443 10.0334 57.3443 10.2934 57.3443 10.6C57.3443 10.8534 57.4243 11.0667 57.5843 11.24C57.7443 11.4134 57.9243 11.5534 58.1243 11.66C58.3243 11.7534 58.6576 11.9 59.1243 12.1C59.6843 12.3267 60.151 12.5534 60.5243 12.78C60.911 12.9934 61.2443 13.3067 61.5243 13.72C61.8176 14.12 61.9643 14.62 61.9643 15.22C61.9643 16.1134 61.651 16.82 61.0243 17.34C60.3976 17.86 59.551 18.12 58.4843 18.12Z" fill="#313731"/>
<path d="M70.233 13.5C70.233 13.5667 70.2064 13.6267 70.153 13.68C70.113 13.72 70.0597 13.74 69.993 13.74H65.573C65.5064 13.74 65.473 13.7734 65.473 13.84V14.74C65.473 15.1534 65.5864 15.4934 65.813 15.76C66.0397 16.0267 66.333 16.16 66.693 16.16C66.9997 16.16 67.2597 16.0667 67.473 15.88C67.6997 15.68 67.8464 15.4267 67.913 15.12C67.953 14.9867 68.0397 14.92 68.173 14.92L69.953 15C70.0197 15 70.073 15.0267 70.113 15.08C70.1664 15.12 70.1864 15.18 70.173 15.26C70.0797 16.1934 69.7397 16.9134 69.153 17.42C68.5664 17.9134 67.7464 18.16 66.693 18.16C65.5997 18.16 64.733 17.8734 64.093 17.3C63.4664 16.7134 63.153 15.92 63.153 14.92V10.86C63.153 9.88671 63.4664 9.10671 64.093 8.52004C64.733 7.92004 65.5997 7.62004 66.693 7.62004C67.7864 7.62004 68.6464 7.92004 69.273 8.52004C69.913 9.10671 70.233 9.88671 70.233 10.86V13.5ZM66.693 9.62004C66.333 9.62004 66.0397 9.75337 65.813 10.02C65.5864 10.2867 65.473 10.6267 65.473 11.04V11.94C65.473 12.0067 65.5064 12.04 65.573 12.04H67.833C67.8997 12.04 67.933 12.0067 67.933 11.94V11.04C67.933 10.6134 67.8197 10.2734 67.593 10.02C67.3664 9.75337 67.0664 9.62004 66.693 9.62004Z" fill="#313731"/>
<path d="M78.9487 5.76004C78.9487 5.82671 78.922 5.88671 78.8687 5.94004C78.8287 5.98004 78.7753 6.00004 78.7087 6.00004H74.4087C74.342 6.00004 74.3087 6.03337 74.3087 6.10004V9.88004C74.3087 9.94671 74.342 9.98004 74.4087 9.98004H76.9487C77.0153 9.98004 77.0687 10.0067 77.1087 10.06C77.162 10.1 77.1887 10.1534 77.1887 10.22V11.76C77.1887 11.8267 77.162 11.8867 77.1087 11.94C77.0687 11.98 77.0153 12 76.9487 12H74.4087C74.342 12 74.3087 12.0334 74.3087 12.1V17.76C74.3087 17.8267 74.282 17.8867 74.2287 17.94C74.1887 17.98 74.1353 18 74.0687 18H72.2287C72.162 18 72.102 17.98 72.0487 17.94C72.0087 17.8867 71.9887 17.8267 71.9887 17.76V4.24004C71.9887 4.17337 72.0087 4.12004 72.0487 4.08004C72.102 4.02671 72.162 4.00004 72.2287 4.00004H78.7087C78.7753 4.00004 78.8287 4.02671 78.8687 4.08004C78.922 4.12004 78.9487 4.17337 78.9487 4.24004V5.76004Z" fill="#313731"/>
<path d="M83.6844 7.66004C84.0444 7.66004 84.3244 7.72671 84.5244 7.86004C84.6311 7.92671 84.6711 8.02671 84.6444 8.16004L84.3244 10.02C84.3111 10.18 84.2178 10.2267 84.0444 10.16C83.8578 10.1067 83.6844 10.08 83.5244 10.08C83.3644 10.08 83.2178 10.1 83.0844 10.14C82.7111 10.1934 82.4044 10.4067 82.1644 10.78C81.9378 11.14 81.8244 11.5734 81.8244 12.08V17.74C81.8244 17.8067 81.7978 17.8667 81.7444 17.92C81.7044 17.96 81.6511 17.98 81.5844 17.98H79.7444C79.6778 17.98 79.6178 17.96 79.5644 17.92C79.5244 17.8667 79.5044 17.8067 79.5044 17.74V8.02004C79.5044 7.95337 79.5244 7.90004 79.5644 7.86004C79.6178 7.80671 79.6778 7.78004 79.7444 7.78004H81.5844C81.6511 7.78004 81.7044 7.80671 81.7444 7.86004C81.7978 7.90004 81.8244 7.95337 81.8244 8.02004V8.94004C81.8244 8.99337 81.8378 9.02671 81.8644 9.04004C81.8911 9.04004 81.9111 9.01337 81.9244 8.96004C82.2844 8.09337 82.8711 7.66004 83.6844 7.66004Z" fill="#313731"/>
<path d="M86.994 6.38004C86.5806 6.38004 86.2406 6.24671 85.974 5.98004C85.7073 5.71337 85.574 5.37337 85.574 4.96004C85.574 4.54671 85.7073 4.20671 85.974 3.94004C86.2406 3.67337 86.5806 3.54004 86.994 3.54004C87.4073 3.54004 87.7406 3.67337 87.994 3.94004C88.2606 4.20671 88.394 4.54671 88.394 4.96004C88.394 5.37337 88.2606 5.71337 87.994 5.98004C87.7273 6.24671 87.394 6.38004 86.994 6.38004ZM86.094 18C86.0273 18 85.9673 17.98 85.914 17.94C85.874 17.8867 85.854 17.8267 85.854 17.76V8.02004C85.854 7.95337 85.874 7.90004 85.914 7.86004C85.9673 7.80671 86.0273 7.78004 86.094 7.78004H87.934C88.0006 7.78004 88.054 7.80671 88.094 7.86004C88.1473 7.90004 88.174 7.95337 88.174 8.02004V17.76C88.174 17.8267 88.1473 17.8867 88.094 17.94C88.054 17.98 88.0006 18 87.934 18H86.094Z" fill="#313731"/>
<path d="M96.9908 13.5C96.9908 13.5667 96.9642 13.6267 96.9108 13.68C96.8708 13.72 96.8175 13.74 96.7508 13.74H92.3308C92.2642 13.74 92.2308 13.7734 92.2308 13.84V14.74C92.2308 15.1534 92.3442 15.4934 92.5708 15.76C92.7975 16.0267 93.0908 16.16 93.4508 16.16C93.7575 16.16 94.0175 16.0667 94.2308 15.88C94.4575 15.68 94.6042 15.4267 94.6708 15.12C94.7108 14.9867 94.7975 14.92 94.9308 14.92L96.7108 15C96.7775 15 96.8308 15.0267 96.8708 15.08C96.9242 15.12 96.9442 15.18 96.9308 15.26C96.8375 16.1934 96.4975 16.9134 95.9108 17.42C95.3242 17.9134 94.5042 18.16 93.4508 18.16C92.3575 18.16 91.4908 17.8734 90.8508 17.3C90.2242 16.7134 89.9108 15.92 89.9108 14.92V10.86C89.9108 9.88671 90.2242 9.10671 90.8508 8.52004C91.4908 7.92004 92.3575 7.62004 93.4508 7.62004C94.5442 7.62004 95.4042 7.92004 96.0308 8.52004C96.6708 9.10671 96.9908 9.88671 96.9908 10.86V13.5ZM93.4508 9.62004C93.0908 9.62004 92.7975 9.75337 92.5708 10.02C92.3442 10.2867 92.2308 10.6267 92.2308 11.04V11.94C92.2308 12.0067 92.2642 12.04 92.3308 12.04H94.5908C94.6575 12.04 94.6908 12.0067 94.6908 11.94V11.04C94.6908 10.6134 94.5775 10.2734 94.3508 10.02C94.1242 9.75337 93.8242 9.62004 93.4508 9.62004Z" fill="#313731"/>
<path d="M102.966 7.62004C103.833 7.62004 104.486 7.91337 104.926 8.50004C105.38 9.07337 105.606 9.89337 105.606 10.96V17.76C105.606 17.8267 105.58 17.8867 105.526 17.94C105.486 17.98 105.433 18 105.366 18H103.526C103.46 18 103.4 17.98 103.346 17.94C103.306 17.8867 103.286 17.8267 103.286 17.76V11.14C103.286 10.66 103.186 10.2867 102.986 10.02C102.786 9.75337 102.5 9.62004 102.126 9.62004C101.74 9.62004 101.44 9.76004 101.226 10.04C101.013 10.32 100.906 10.7067 100.906 11.2V17.76C100.906 17.8267 100.88 17.8867 100.826 17.94C100.786 17.98 100.733 18 100.666 18H98.8265C98.7598 18 98.6998 17.98 98.6465 17.94C98.6065 17.8867 98.5865 17.8267 98.5865 17.76V8.02004C98.5865 7.95337 98.6065 7.90004 98.6465 7.86004C98.6998 7.80671 98.7598 7.78004 98.8265 7.78004H100.666C100.733 7.78004 100.786 7.80671 100.826 7.86004C100.88 7.90004 100.906 7.95337 100.906 8.02004V8.42004C100.906 8.46004 100.92 8.48671 100.946 8.50004C100.986 8.50004 101.026 8.47337 101.066 8.42004C101.52 7.88671 102.153 7.62004 102.966 7.62004Z" fill="#313731"/>
<path d="M111.956 4.24004C111.956 4.17337 111.976 4.12004 112.016 4.08004C112.069 4.02671 112.129 4.00004 112.196 4.00004H114.036C114.102 4.00004 114.156 4.02671 114.196 4.08004C114.249 4.12004 114.276 4.17337 114.276 4.24004V17.76C114.276 17.8267 114.249 17.8867 114.196 17.94C114.156 17.98 114.102 18 114.036 18H112.196C112.129 18 112.069 17.98 112.016 17.94C111.976 17.8867 111.956 17.8267 111.956 17.76V17.52C111.956 17.48 111.942 17.4534 111.916 17.44C111.889 17.4267 111.862 17.4334 111.836 17.46C111.356 17.9267 110.756 18.16 110.036 18.16C109.142 18.16 108.449 17.8667 107.956 17.28C107.462 16.6934 107.216 15.9067 107.216 14.92V10.86C107.216 9.84671 107.462 9.05337 107.956 8.48004C108.462 7.90671 109.156 7.62004 110.036 7.62004C110.342 7.62004 110.656 7.68004 110.976 7.80004C111.296 7.90671 111.582 8.08671 111.836 8.34004C111.862 8.36671 111.889 8.37337 111.916 8.36004C111.942 8.34671 111.956 8.32004 111.956 8.28004V4.24004ZM110.756 16.16C111.076 16.16 111.342 16.06 111.556 15.86C111.769 15.6467 111.902 15.3667 111.956 15.02V10.76C111.902 10.4134 111.769 10.14 111.556 9.94004C111.342 9.72671 111.076 9.62004 110.756 9.62004C110.382 9.62004 110.082 9.75337 109.856 10.02C109.629 10.2734 109.516 10.6134 109.516 11.04V14.74C109.516 15.1667 109.629 15.5134 109.856 15.78C110.082 16.0334 110.382 16.16 110.756 16.16Z" fill="#313731"/>
<ellipse cx="7.16042" cy="4.66123" rx="2.46914" ry="2.45323" fill="#313731"/>
<path d="M20.7406 3.67984C20.7406 5.71216 19.0824 7.35968 17.0369 7.35968C14.9914 7.35968 13.3332 5.71216 13.3332 3.67984C13.3332 1.64752 14.9914 0 17.0369 0C19.0824 0 20.7406 1.64752 20.7406 3.67984Z" fill="#00C61B"/>
<path d="M10.4294 9.90135C9.90159 9.07949 10.0709 7.99591 10.8248 7.37178C11.3804 6.91169 12.1469 6.79517 12.8156 7.0691L20.0455 10.0306C22.8593 11.1832 23.6854 14.7509 21.6615 17.0093C19.7128 19.1838 16.2124 18.9058 14.6361 16.4514L10.4294 9.90135Z" fill="#00C61B"/>
<path opacity="0.7" d="M13.2718 9.33957C13.6312 8.57238 13.3616 7.66015 12.6422 7.20964C12.1119 6.87756 11.4397 6.86481 10.8961 7.17652L5.03567 10.5365C2.74839 11.8479 2.44582 15.0097 4.44399 16.7195C6.36739 18.3653 9.34333 17.7253 10.4162 15.4353L13.2718 9.33957Z" fill="#313731"/>
<path d="M18.9864 14.3865C18.9432 14.4283 18.9234 14.4888 18.9332 14.5482L19.0814 15.3682C19.0939 15.4377 19.0646 15.508 19.0064 15.5482C18.9494 15.5898 18.8736 15.5948 18.8114 15.5615L18.0732 15.1765C18.0476 15.1628 18.0191 15.1555 17.9899 15.1547H17.9447C17.9291 15.157 17.9137 15.162 17.8997 15.1697L17.1614 15.5565C17.1249 15.5748 17.0836 15.5813 17.0431 15.5748C16.9444 15.5562 16.8786 15.4622 16.8947 15.363L17.0431 14.543C17.0529 14.4832 17.0331 14.4223 16.9899 14.3798L16.3881 13.7965C16.3377 13.7477 16.3202 13.6743 16.3432 13.6082C16.3656 13.5422 16.4226 13.494 16.4914 13.4832L17.3197 13.363C17.3827 13.3565 17.4381 13.3182 17.4664 13.2615L17.8314 12.5132C17.8401 12.4965 17.8512 12.4812 17.8647 12.4682L17.8797 12.4565C17.8876 12.4478 17.8966 12.4407 17.9066 12.4348L17.9247 12.4282L17.9531 12.4165H18.0232C18.0859 12.423 18.1411 12.4605 18.1699 12.5165L18.5397 13.2615C18.5664 13.316 18.6182 13.3538 18.6781 13.363L19.5064 13.4832C19.5764 13.4932 19.6349 13.5415 19.6581 13.6082C19.6799 13.675 19.6611 13.7483 19.6097 13.7965L18.9864 14.3865Z" fill="white"/>
</svg>
