<svg width="73" height="20" viewBox="0 0 73 20" fill="none" xmlns="http://www.w3.org/2000/svg">
<g opacity="0.8">
<path d="M13.0347 3.25792C12.7967 2.7728 12.4201 2.37268 11.9527 2.07222C11.465 1.76884 10.8894 1.55632 10.2315 1.43028C9.56206 1.30716 8.78875 1.25147 7.89281 1.24268L3.75646 1.24561C3.32652 1.25147 2.90524 1.59149 2.80425 2.0136L0.0211962 14.3278C-0.0797959 14.7441 0.189997 15.0929 0.619935 15.0929H2.60082C3.03076 15.0929 3.45637 14.7543 3.55159 14.3278L4.23112 11.338C4.32202 10.9217 4.74618 10.5744 5.18045 10.5744H5.74745C8.16981 10.5714 10.0454 10.0687 11.3929 9.06182C12.7476 8.05347 13.4156 6.72121 13.4156 5.07091C13.4142 4.34835 13.2973 3.74158 13.0347 3.25792ZM8.76278 7.28108C8.16404 7.72663 7.33158 7.94941 6.25818 7.94941H5.77342C5.34204 7.94941 5.07801 7.60352 5.17179 7.18142L5.76764 4.56673C5.85132 4.14756 6.28559 3.8002 6.7112 3.80313L7.36043 3.79874C8.11788 3.79874 8.69641 3.93211 9.08307 4.19006C9.4654 4.44508 9.65728 4.85106 9.6544 5.38895C9.66594 6.20677 9.35863 6.83553 8.76278 7.28108Z" fill="#313731"/>
<path d="M69.5036 2.20724L69.3795 2.24535L69.2136 2.2688L69.0102 2.23655L68.9063 2.13396L68.8587 1.97274L68.8558 1.73091V0.83541H69.518V0.558404H68.8558V0H68.5283V0.558404H68.3062V0.83541H68.5283V1.87748L68.6813 2.39338L69.1314 2.55753L69.3204 2.54141L69.5209 2.50183V2.20724H69.5036Z" fill="#313731"/>
<path d="M72.5751 0.700544L72.1019 0.502686L71.7528 0.574501L71.3978 0.817794L71.1915 0.584761L70.8568 0.50415L70.5351 0.575966L70.2307 0.775292V0.558377H69.9089V2.515H70.2292V1.05376L70.499 0.883748L70.7674 0.816329L70.9867 0.855902L71.0949 0.968755L71.1425 1.15636L71.1584 1.39818V2.51646H71.4801V1.26481L71.4743 1.16075L71.4685 1.06549L71.7427 0.888145L72.0139 0.819262L72.226 0.858832L72.3414 0.971688L72.3818 1.16075L72.4034 1.39965V2.51793H72.7266V1.24723L72.5751 0.700544Z" fill="#313731"/>
<path d="M22.5871 5.01872C21.8397 4.59075 20.6595 4.37677 19.0466 4.37677C18.2487 4.37677 17.4538 4.43979 16.6502 4.56584C16.0572 4.65817 15.9995 4.67576 15.6345 4.75637C14.8814 4.92345 14.7631 5.68704 14.7631 5.68704L14.5207 6.6998C14.3836 7.34614 14.7501 7.32123 14.903 7.267C15.2319 7.16733 15.4152 7.06474 16.0875 6.91231C16.7295 6.76428 17.4062 6.65289 17.9429 6.66022C18.7349 6.66022 19.3409 6.74523 19.7448 6.91818C20.143 7.09405 20.3421 7.39597 20.3421 7.83273L20.3075 8.11706L20.0219 8.29587C18.898 8.36769 18.0857 8.47321 17.1003 8.61831C16.1365 8.75461 15.2911 8.99351 14.5885 9.32035C13.8339 9.65744 13.2741 10.1103 12.8832 10.6863C12.5052 11.2652 12.3162 11.9673 12.3162 12.791C12.3162 13.5663 12.5903 14.2068 13.1227 14.7021C13.6579 15.1887 14.3649 15.4262 15.2103 15.4262C15.7456 15.4232 16.1596 15.3807 16.454 15.3089L17.4134 14.9733L18.2256 14.516L18.973 14.0148L18.9831 14.0294L18.9081 14.3519L18.9037 14.3651V14.368C18.8229 14.7608 19.0567 15.0832 19.4332 15.1213L19.4404 15.1301H19.4751H20.9943H21.2799L21.3059 15.1184C21.7012 15.0715 22.072 14.749 22.1586 14.3651L23.6027 8.01447L23.6778 7.4971L23.7124 7.01198C23.7182 6.11208 23.3358 5.44522 22.5871 5.01872ZM19.3928 12.1593L19.0841 12.5726L18.305 12.9815C17.9385 13.1325 17.5908 13.2087 17.2691 13.2087C16.7815 13.2087 16.3991 13.1369 16.1409 12.9903L15.7585 12.2355C15.7585 11.8266 15.8509 11.5027 16.0485 11.2535L16.8882 10.6731C17.2475 10.55 17.6861 10.446 18.1939 10.3741C18.6469 10.317 19.5414 10.2129 19.6583 10.21L19.7953 10.4547C19.7679 10.594 19.514 11.6727 19.3928 12.1593Z" fill="#313731"/>
<path d="M58.5658 5.02726C57.8142 4.5993 56.6354 4.38385 55.0268 4.38385C54.2289 4.38385 53.4325 4.44687 52.6318 4.57731C52.0374 4.66525 51.9782 4.68431 51.6118 4.76345C50.8601 4.92907 50.7433 5.69559 50.7433 5.69559L50.5009 6.70688C50.3653 7.35322 50.7231 7.32391 50.8904 7.27408C51.2208 7.17441 51.3983 7.07622 52.0648 6.91793C52.704 6.77137 53.3864 6.66291 53.9245 6.66584C54.7137 6.66584 55.3196 6.75231 55.7222 6.92526C56.1233 7.10113 56.3195 7.40598 56.3195 7.83835L56.2892 8.12121L56.0064 8.30442C54.871 8.3733 54.0572 8.47883 53.0819 8.62392C52.1211 8.76023 51.2727 8.99766 50.5687 9.32596C49.817 9.66452 49.25 10.1174 48.8634 10.6949C48.481 11.2738 48.2949 11.9744 48.2949 12.7907C48.2949 13.5719 48.5662 14.2124 49.1057 14.7048C49.6439 15.19 50.3436 15.4333 51.1891 15.4333C51.7214 15.4274 52.1355 15.3922 52.4313 15.3145L53.3878 14.9833L54.2073 14.526L54.9489 14.0189L54.9618 14.035L54.894 14.3604L54.8868 14.3663L54.8897 14.3721C54.8003 14.7649 55.0354 15.0903 55.4163 15.1255L55.4192 15.1328H55.4538C55.7034 15.1328 56.5662 15.1328 56.9774 15.1328H57.2572L57.2875 15.1225C57.6785 15.0742 58.0479 14.7517 58.1301 14.3633L59.5786 8.02155L59.6551 7.50125L59.6969 7.01466C59.6984 6.11769 59.3204 5.45376 58.5658 5.02726ZM55.3788 12.1678L55.0571 12.5855L54.2852 12.9915C53.9187 13.141 53.5696 13.2187 53.2536 13.2187C52.7501 13.2187 52.3779 13.1454 52.1269 12.9988L51.7402 12.247C51.7402 11.8366 51.834 11.5156 52.023 11.2621C52.2149 11.0232 52.5077 10.8268 52.8713 10.6831C53.2262 10.56 53.6648 10.4604 54.1755 10.3856C54.6257 10.3285 55.5173 10.2215 55.6327 10.22L55.7727 10.4648C55.7525 10.604 55.4971 11.6783 55.3788 12.1678Z" fill="#313731"/>
<path d="M49.008 3.30376C48.7598 2.8157 48.3876 2.42145 47.9173 2.11366C47.4354 1.80881 46.8641 1.59483 46.1961 1.47172C45.5396 1.353 44.7562 1.28851 43.8661 1.28705L39.7239 1.28998C39.2926 1.29731 38.8785 1.63733 38.7789 2.05504L35.993 14.3751C35.892 14.7928 36.169 15.1387 36.5903 15.1387L38.5741 15.1358C38.9954 15.1387 39.4267 14.7958 39.5263 14.3737L40.1972 11.3823C40.2953 10.9661 40.7209 10.6158 41.1494 10.6187H41.7164C44.1416 10.6187 46.0215 10.1116 47.3748 9.10766C48.7122 8.09198 49.3889 6.76265 49.3889 5.11088C49.3817 4.39126 49.259 3.78302 49.008 3.30376ZM44.736 7.33278C44.1387 7.76954 43.3048 7.99231 42.2372 7.99231H41.7438C41.3182 7.99671 41.0426 7.64496 41.1378 7.22579L41.738 4.6155C41.826 4.19779 42.256 3.84751 42.6844 3.8519L43.3265 3.84751C44.0882 3.8519 44.6596 3.97941 45.0491 4.23736C45.4372 4.49531 45.6204 4.89983 45.6248 5.43625C45.6291 6.25407 45.3304 6.8843 44.736 7.33278Z" fill="#313731"/>
<path d="M65.9933 2.15325C66.0842 1.73262 65.8245 1.39112 65.3989 1.39699H63.6243C63.2607 1.39699 62.9332 1.67106 62.7731 2.00815L62.675 2.16351L62.5855 2.56216L60.1055 14.0146L60.0247 14.3664L60.0276 14.3752C59.9453 14.7518 60.1733 15.0362 60.5253 15.0904L60.5556 15.1329H62.398C62.7587 15.1329 63.0977 14.8544 63.2521 14.5115L63.3473 14.3649L65.9991 2.15472L65.9933 2.15325Z" fill="#313731"/>
<path d="M36.0479 4.53032C35.579 4.53618 33.6732 4.53032 33.6732 4.53032C33.2461 4.53032 32.6979 4.8806 32.4266 5.29831C32.4266 5.29831 29.5902 10.2434 29.3146 10.7402L28.9857 10.7358L28.1027 5.33202C28.0046 4.90698 27.5675 4.54351 27.0236 4.54351L25.249 4.54644C24.8219 4.54644 24.5594 4.89233 24.656 5.31443C24.656 5.31443 26.0035 13.1043 26.2733 14.9378C26.3989 15.9491 26.2575 16.1293 26.2575 16.1293L24.5031 19.2335C24.2434 19.6556 24.3833 20.0001 24.809 20.0001L26.8605 19.9971C27.2876 19.9971 27.8488 19.6556 28.1027 19.2321L35.9945 5.67204C35.9945 5.67351 36.7534 4.5142 36.0479 4.53032Z" fill="#313731"/>
</g>
</svg>
