<svg width="100" height="100" viewBox="0 0 100 100" fill="none" xmlns="http://www.w3.org/2000/svg">
<path d="M77.3014 43.8892H71.9045C71.5871 43.8892 71.2696 44.2066 71.1109 44.5241L68.8887 58.4924C68.8887 58.8098 69.0474 58.9686 69.3649 58.9686H72.222C72.5395 58.9686 72.6982 58.8098 72.6982 58.4924L73.3331 54.5241C73.3331 54.2066 73.6506 53.8892 74.1268 53.8892H75.8728C79.5236 53.8892 81.5871 52.1431 82.0633 48.6511C82.3807 47.2225 82.0633 45.9527 81.4284 45.159C80.476 44.3654 79.0474 43.8892 77.3014 43.8892ZM77.9363 49.1273C77.6188 51.032 76.1903 51.032 74.7617 51.032H73.8093L74.4442 47.3812C74.4442 47.2225 74.603 47.0638 74.9204 47.0638H75.2379C76.1903 47.0638 77.1426 47.0638 77.6188 47.6987C77.9363 47.8574 77.9363 48.3336 77.9363 49.1273Z" fill="#139AD6"/>
<path d="M38.4127 43.8892H33.0159C32.6984 43.8892 32.381 44.2066 32.2222 44.5241L30 58.4924C30 58.8098 30.1587 58.9686 30.4762 58.9686H33.0159C33.3333 58.9686 33.6508 58.6511 33.8095 58.3336L34.4444 54.5241C34.4444 54.2066 34.7619 53.8892 35.2381 53.8892H36.9841C40.6349 53.8892 42.6984 52.1431 43.1746 48.6511C43.4921 47.2225 43.1746 45.9527 42.5397 45.159C41.5873 44.3654 40.3175 43.8892 38.4127 43.8892ZM39.0476 49.1273C38.7302 51.032 37.3016 51.032 35.873 51.032H35.0794L35.7143 47.3812C35.7143 47.2225 35.873 47.0638 36.1905 47.0638H36.5079C37.4603 47.0638 38.4127 47.0638 38.8889 47.6987C39.0476 47.8574 39.2064 48.3336 39.0476 49.1273Z" fill="#263B80"/>
<path d="M54.7616 48.9683H52.2219C52.0632 48.9683 51.7457 49.1271 51.7457 49.2858L51.587 50.0795L51.4283 49.762C50.7934 48.9683 49.6822 48.6509 48.4124 48.6509C45.5553 48.6509 43.0156 50.8731 42.5394 53.889C42.2219 55.4763 42.6981 56.9049 43.4918 57.8573C44.2854 58.8096 45.3965 59.1271 46.8251 59.1271C49.2061 59.1271 50.4759 57.6985 50.4759 57.6985L50.3172 58.4922C50.3172 58.8096 50.4759 58.9684 50.7934 58.9684H53.1743C53.4918 58.9684 53.8092 58.6509 53.968 58.3334L55.3965 49.4445C55.2378 49.2858 54.9204 48.9683 54.7616 48.9683ZM51.1108 54.0477C50.7934 55.4763 49.6822 56.5874 48.0949 56.5874C47.3013 56.5874 46.6664 56.2699 46.3489 55.9525C46.0315 55.4763 45.8727 54.8414 45.8727 54.0477C46.0314 52.6191 47.3013 51.508 48.7299 51.508C49.5235 51.508 49.9997 51.8255 50.4759 52.143C50.9521 52.6191 51.1108 53.4128 51.1108 54.0477Z" fill="#263B80"/>
<path d="M93.4925 48.9683H90.9529C90.7941 48.9683 90.4767 49.1271 90.4767 49.2858L90.3179 50.0795L90.1592 49.762C89.5243 48.9683 88.4132 48.6509 87.1433 48.6509C84.2862 48.6509 81.7465 50.8731 81.2703 53.889C80.9529 55.4763 81.4291 56.9049 82.2227 57.8573C83.0164 58.8096 84.1275 59.1271 85.556 59.1271C87.937 59.1271 89.2068 57.6985 89.2068 57.6985L89.0481 58.4922C89.0481 58.8096 89.2068 58.9684 89.5243 58.9684H91.9052C92.2227 58.9684 92.5402 58.6509 92.6989 58.3334L94.1274 49.4445C93.9687 49.2858 93.81 48.9683 93.4925 48.9683ZM89.8417 54.0477C89.5243 55.4763 88.4132 56.5874 86.8259 56.5874C86.0322 56.5874 85.3973 56.2699 85.0798 55.9525C84.7624 55.4763 84.6037 54.8414 84.6037 54.0477C84.7624 52.6191 86.0322 51.508 87.4608 51.508C88.2544 51.508 88.7306 51.8255 89.2068 52.143C89.8417 52.6191 90.0005 53.4128 89.8417 54.0477Z" fill="#139AD6"/>
<path d="M68.5714 48.9683H65.873C65.5555 48.9683 65.3968 49.127 65.238 49.2857L61.746 54.6825L60.1587 49.6032C59.9999 49.2857 59.8412 49.127 59.365 49.127H56.8253C56.5079 49.127 56.3491 49.4445 56.3491 49.7619L59.2063 58.1746L56.5078 61.9841C56.3491 62.3016 56.5079 62.7778 56.8253 62.7778H59.365C59.6825 62.7778 59.8412 62.619 59.9999 62.4603L68.7301 49.9206C69.2063 49.4445 68.8888 48.9683 68.5714 48.9683Z" fill="#263B80"/>
<path d="M96.5074 44.3651L94.2852 58.6508C94.2852 58.9683 94.4439 59.127 94.7613 59.127H96.9836C97.301 59.127 97.6185 58.8095 97.7772 58.4921L99.9994 44.5238C99.9994 44.2064 99.8407 44.0476 99.5233 44.0476H96.9836C96.8248 43.8889 96.6661 44.0476 96.5074 44.3651Z" fill="#139AD6"/>
<path d="M18.254 39.1269C17.1429 37.8571 15.0794 37.2222 12.2222 37.2222H4.28571C3.80952 37.2222 3.33333 37.6984 3.1746 38.1745L0 58.9682C0 59.4444 0.31746 59.7618 0.634921 59.7618H5.55556L6.8254 51.9841V52.3015C6.98413 51.8253 7.46032 51.3491 7.93651 51.3491H10.3175C14.9206 51.3491 18.4127 49.4444 19.5238 44.2063C19.5238 44.0476 19.5238 43.8888 19.5238 43.7301C19.3651 43.7301 19.3651 43.7301 19.5238 43.7301C19.6825 41.6666 19.3651 40.3968 18.254 39.1269Z" fill="#263B80"/>
<path d="M19.3648 43.7305C19.3648 43.8892 19.3648 44.0479 19.3648 44.2067C18.2537 49.6035 14.7616 51.3495 10.1585 51.3495H7.77751C7.30132 51.3495 6.82513 51.8257 6.6664 52.3019L5.0791 61.9844C5.0791 62.3019 5.23783 62.6194 5.71402 62.6194H9.84101C10.3172 62.6194 10.7934 62.3019 10.7934 61.8257V61.667L11.587 56.7463V56.4289C11.587 55.9527 12.0632 55.6352 12.5394 55.6352H13.1743C17.1426 55.6352 20.3172 54.0479 21.1108 49.286C21.4283 47.3813 21.2696 45.6352 20.3172 44.5241C20.1585 44.2067 19.841 43.8892 19.3648 43.7305Z" fill="#139AD6"/>
<path d="M18.2543 43.254C18.0955 43.254 17.9368 43.0953 17.7781 43.0953C17.6193 43.0953 17.4606 43.0953 17.3019 42.9366C16.667 42.7778 16.032 42.7778 15.2384 42.7778H9.0479C8.88917 42.7778 8.73045 42.7778 8.57172 42.9366C8.25425 43.0953 8.09552 43.4128 8.09552 43.7302L6.82568 51.9842V52.3016C6.98441 51.8255 7.4606 51.3493 7.93679 51.3493H10.3177C14.9209 51.3493 18.413 49.4445 19.5241 44.2064C19.5241 44.0477 19.5241 43.8889 19.6828 43.7302C19.3654 43.5715 19.2066 43.4128 18.8892 43.4128C18.413 43.254 18.413 43.254 18.2543 43.254Z" fill="#232C65"/>
</svg>
