<svg width="62" height="62" viewBox="0 0 62 62" fill="none" xmlns="http://www.w3.org/2000/svg">
<rect opacity="0.1" width="62" height="62" rx="6" fill="#00C61B"/>
<ellipse cx="24.7408" cy="22.9918" rx="3.7037" ry="3.67984" fill="#313731"/>
<path d="M45.111 21.5198C45.111 24.5682 42.6237 27.0395 39.5555 27.0395C36.4872 27.0395 33.9999 24.5682 33.9999 21.5198C33.9999 18.4713 36.4872 16 39.5555 16C42.6237 16 45.111 18.4713 45.111 21.5198Z" fill="#00C61B"/>
<path d="M29.6442 30.852C28.8525 29.6192 29.1065 27.9939 30.2373 27.0577C31.0708 26.3675 32.2204 26.1928 33.2235 26.6036L44.0684 31.046C48.2891 32.7748 49.5283 38.1264 46.4924 41.514C43.5693 44.7757 38.3187 44.3587 35.9542 40.677L29.6442 30.852Z" fill="#00C61B"/>
<path opacity="0.7" d="M33.9078 30.0094C34.4469 28.8586 34.0424 27.4902 32.9633 26.8145V26.8145C32.1679 26.3163 31.1597 26.2972 30.3442 26.7648L21.5536 31.8048C18.1226 33.7718 17.6688 38.5145 20.666 41.0792V41.0792C23.5512 43.5479 28.0151 42.588 29.6243 39.1529L33.9078 30.0094Z" fill="#313731"/>
</svg>
