<svg width="22" height="18" viewBox="0 0 22 18" fill="none" xmlns="http://www.w3.org/2000/svg">
<path d="M21.5 2.77233C20.7271 3.10026 19.8978 3.32266 19.0264 3.42196C19.9161 2.9118 20.5972 2.10262 20.92 1.14139C20.0854 1.61382 19.1642 1.95687 18.1826 2.14284C17.3966 1.33994 16.2785 0.839844 15.0384 0.839844C12.6593 0.839844 10.7303 2.6869 10.7303 4.96369C10.7303 5.2866 10.7683 5.60198 10.8418 5.90357C7.26201 5.7314 4.08768 4.08916 1.96314 1.59372C1.59176 2.20188 1.38049 2.91052 1.38049 3.66696C1.38049 5.09814 2.14161 6.36092 3.2964 7.09974C2.5904 7.07714 1.92639 6.89115 1.34508 6.58204V6.63356C1.34508 8.63144 2.83056 10.2987 4.80024 10.6782C4.43936 10.7712 4.05882 10.8227 3.66514 10.8227C3.38696 10.8227 3.11794 10.7963 2.85417 10.7461C3.40267 12.3858 4.99315 13.5782 6.87756 13.6109C5.40388 14.7167 3.54573 15.3738 1.52749 15.3738C1.17976 15.3738 0.83724 15.3537 0.5 15.3173C2.40671 16.4896 4.67036 17.1731 7.10327 17.1731C15.028 17.1731 19.3597 10.8881 19.3597 5.43741L19.3453 4.9034C20.1917 4.32536 20.9239 3.59911 21.5 2.77233Z" fill="#313731"/>
</svg>
